STARTFONT 2.1
COMMENT
COMMENT Converted from OpenType font "truongsa_regular.ttf" by "otf2bdf 3.0".
COMMENT
FONT -FreeType-VPS Truong Sa Light Hoa-Medium-R-Normal--14-100-100-100-P-72-ISO10646-1
SIZE 10 100 100
FONTBOUNDINGBOX 13 19 0 -3
STARTPROPERTIES 19
FOUNDRY "FreeType"
FAMILY_NAME "VPS Truong Sa Light Hoa"
WEIGHT_NAME "Medium"
SLANT "R"
SETWIDTH_NAME "Normal"
ADD_STYLE_NAME ""
PIXEL_SIZE 14
POINT_SIZE 100
RESOLUTION_X 100
RESOLUTION_Y 100
SPACING "P"
AVERAGE_WIDTH 72
CHARSET_REGISTRY "ISO10646"
CHARSET_ENCODING "1"
FONT_ASCENT 13
FONT_DESCENT 3
COPYRIGHT "VPS Font"
_OTF_FONTFILE "truongsa_regular.ttf"
_OTF_PSNAME "VPS Truong Sa Light Hoa"
ENDPROPERTIES
CHARS 270
STARTCHAR 0002
ENCODING 2
SWIDTH 648 0
DWIDTH 9 0
BBX 9 12 0 -2
BITMAP
0800
1C00
1400
2600
2200
2200
7F00
4100
4100
C180
0000
1800
ENDCHAR
STARTCHAR 0003
ENCODING 3
SWIDTH 648 0
DWIDTH 9 0
BBX 9 15 0 -2
BITMAP
0C00
1000
0000
0800
1C00
1400
2600
2200
2200
7F00
4100
4100
C180
0000
1800
ENDCHAR
STARTCHAR 0004
ENCODING 4
SWIDTH 648 0
DWIDTH 9 0
BBX 9 14 0 -1
BITMAP
1C00
0000
0800
1C00
1400
2600
2200
2200
7F00
4100
4100
C180
0000
1800
ENDCHAR
STARTCHAR 0005
ENCODING 5
SWIDTH 576 0
DWIDTH 8 0
BBX 7 12 1 -2
BITMAP
FE
82
80
80
FC
80
80
80
80
FE
00
30
ENDCHAR
STARTCHAR 0006
ENCODING 6
SWIDTH 576 0
DWIDTH 8 0
BBX 7 15 1 -2
BITMAP
18
20
00
FE
82
80
80
FC
80
80
80
80
FE
00
10
ENDCHAR
STARTCHAR 0015
ENCODING 21
SWIDTH 648 0
DWIDTH 9 0
BBX 10 14 0 -1
BITMAP
0040
0040
E180
4080
4080
4080
4080
4080
4080
4080
6100
3E00
0000
0C00
ENDCHAR
STARTCHAR 0019
ENCODING 25
SWIDTH 648 0
DWIDTH 9 0
BBX 9 12 0 -2
BITMAP
E180
4100
6100
3200
1400
0800
0800
0800
0800
1C00
0000
0800
ENDCHAR
STARTCHAR 001C
ENCODING 28
SWIDTH 648 0
DWIDTH 9 0
BBX 9 15 0 0
BITMAP
1C00
0000
0C00
1000
0000
0800
1C00
1400
2600
2200
2200
7F00
4100
4100
C180
ENDCHAR
STARTCHAR 001D
ENCODING 29
SWIDTH 648 0
DWIDTH 9 0
BBX 10 15 0 0
BITMAP
0E00
0000
0000
0040
0040
E180
4080
4080
4080
4080
4080
4080
4080
6100
3E00
ENDCHAR
STARTCHAR 0020
ENCODING 32
SWIDTH 216 0
DWIDTH 3 0
BBX 0 0 0 0
BITMAP
ENDCHAR
STARTCHAR 0021
ENCODING 33
SWIDTH 216 0
DWIDTH 3 0
BBX 2 10 1 0
BITMAP
C0
80
80
80
80
80
80
00
00
C0
ENDCHAR
STARTCHAR 0022
ENCODING 34
SWIDTH 288 0
DWIDTH 4 0
BBX 3 4 1 6
BITMAP
A0
A0
A0
20
ENDCHAR
STARTCHAR 0023
ENCODING 35
SWIDTH 720 0
DWIDTH 10 0
BBX 9 10 1 0
BITMAP
0900
0900
1200
7F80
1400
2400
FF00
2800
4800
4800
ENDCHAR
STARTCHAR 0024
ENCODING 36
SWIDTH 504 0
DWIDTH 7 0
BBX 6 12 1 -2
BITMAP
20
78
A8
A0
E0
70
38
24
24
A4
78
20
ENDCHAR
STARTCHAR 0025
ENCODING 37
SWIDTH 864 0
DWIDTH 12 0
BBX 10 10 1 0
BITMAP
7B00
8E00
8A00
8C00
7400
0980
0A40
1240
1240
23C0
ENDCHAR
STARTCHAR 0026
ENCODING 38
SWIDTH 720 0
DWIDTH 10 0
BBX 10 10 0 0
BITMAP
3C00
2200
2400
2C00
11C0
7880
4D00
8500
4200
7DC0
ENDCHAR
STARTCHAR 0027
ENCODING 39
SWIDTH 144 0
DWIDTH 2 0
BBX 1 3 1 6
BITMAP
80
80
80
ENDCHAR
STARTCHAR 0028
ENCODING 40
SWIDTH 288 0
DWIDTH 4 0
BBX 2 12 1 -2
BITMAP
40
40
40
80
80
80
80
80
80
40
40
40
ENDCHAR
STARTCHAR 0029
ENCODING 41
SWIDTH 288 0
DWIDTH 4 0
BBX 2 12 1 -2
BITMAP
80
80
40
40
40
40
40
40
40
40
80
80
ENDCHAR
STARTCHAR 002A
ENCODING 42
SWIDTH 432 0
DWIDTH 6 0
BBX 5 5 1 5
BITMAP
20
B8
60
F8
20
ENDCHAR
STARTCHAR 002B
ENCODING 43
SWIDTH 792 0
DWIDTH 11 0
BBX 8 8 2 0
BITMAP
10
10
10
FF
10
10
10
10
ENDCHAR
STARTCHAR 002C
ENCODING 44
SWIDTH 216 0
DWIDTH 3 0
BBX 2 3 1 -2
BITMAP
C0
40
80
ENDCHAR
STARTCHAR 002D
ENCODING 45
SWIDTH 288 0
DWIDTH 4 0
BBX 3 1 1 3
BITMAP
E0
ENDCHAR
STARTCHAR 002E
ENCODING 46
SWIDTH 216 0
DWIDTH 3 0
BBX 2 1 1 0
BITMAP
C0
ENDCHAR
STARTCHAR 002F
ENCODING 47
SWIDTH 216 0
DWIDTH 3 0
BBX 4 11 0 -1
BITMAP
10
20
20
20
40
40
40
80
80
80
80
ENDCHAR
STARTCHAR 0030
ENCODING 48
SWIDTH 504 0
DWIDTH 7 0
BBX 7 10 0 0
BITMAP
3C
46
42
C2
C2
C2
C2
42
46
3C
ENDCHAR
STARTCHAR 0031
ENCODING 49
SWIDTH 504 0
DWIDTH 7 0
BBX 4 10 2 0
BITMAP
60
E0
60
60
60
60
60
60
60
F0
ENDCHAR
STARTCHAR 0032
ENCODING 50
SWIDTH 504 0
DWIDTH 7 0
BBX 7 10 0 0
BITMAP
3C
46
42
06
0C
18
30
60
42
FE
ENDCHAR
STARTCHAR 0033
ENCODING 51
SWIDTH 504 0
DWIDTH 7 0
BBX 7 10 0 0
BITMAP
7C
44
46
04
38
0C
06
82
86
7C
ENDCHAR
STARTCHAR 0034
ENCODING 52
SWIDTH 504 0
DWIDTH 7 0
BBX 7 10 0 0
BITMAP
0C
14
24
24
44
44
FE
04
04
0C
ENDCHAR
STARTCHAR 0035
ENCODING 53
SWIDTH 504 0
DWIDTH 7 0
BBX 7 10 0 0
BITMAP
7C
40
40
40
7C
06
02
02
C6
7C
ENDCHAR
STARTCHAR 0036
ENCODING 54
SWIDTH 504 0
DWIDTH 7 0
BBX 7 10 0 0
BITMAP
1C
20
60
40
7C
C2
C2
42
42
3C
ENDCHAR
STARTCHAR 0037
ENCODING 55
SWIDTH 504 0
DWIDTH 7 0
BBX 6 10 1 0
BITMAP
FC
84
08
08
18
10
10
20
20
60
ENDCHAR
STARTCHAR 0038
ENCODING 56
SWIDTH 504 0
DWIDTH 7 0
BBX 7 10 0 0
BITMAP
3C
42
42
64
38
2E
42
82
C2
7C
ENDCHAR
STARTCHAR 0039
ENCODING 57
SWIDTH 504 0
DWIDTH 7 0
BBX 7 10 0 0
BITMAP
3C
46
C2
C2
42
7E
02
04
08
30
ENDCHAR
STARTCHAR 003A
ENCODING 58
SWIDTH 216 0
DWIDTH 3 0
BBX 2 6 1 0
BITMAP
C0
00
00
00
00
C0
ENDCHAR
STARTCHAR 003B
ENCODING 59
SWIDTH 216 0
DWIDTH 3 0
BBX 2 8 1 -2
BITMAP
C0
00
00
00
00
C0
40
80
ENDCHAR
STARTCHAR 003C
ENCODING 60
SWIDTH 792 0
DWIDTH 11 0
BBX 8 7 2 1
BITMAP
01
06
38
C0
60
18
07
ENDCHAR
STARTCHAR 003D
ENCODING 61
SWIDTH 792 0
DWIDTH 11 0
BBX 8 4 2 2
BITMAP
FF
00
00
FF
ENDCHAR
STARTCHAR 003E
ENCODING 62
SWIDTH 792 0
DWIDTH 11 0
BBX 8 6 2 2
BITMAP
E0
18
07
06
18
E0
ENDCHAR
STARTCHAR 003F
ENCODING 63
SWIDTH 432 0
DWIDTH 6 0
BBX 6 10 0 0
BITMAP
78
C8
04
08
18
20
20
00
00
20
ENDCHAR
STARTCHAR 0040
ENCODING 64
SWIDTH 936 0
DWIDTH 13 0
BBX 12 12 1 -2
BITMAP
0F80
3040
4020
8690
8990
9890
9120
9120
9740
4880
2020
1FC0
ENDCHAR
STARTCHAR 0041
ENCODING 65
SWIDTH 648 0
DWIDTH 9 0
BBX 9 10 0 0
BITMAP
0800
1C00
1400
2600
2200
2200
7F00
4100
4100
C180
ENDCHAR
STARTCHAR 0042
ENCODING 66
SWIDTH 648 0
DWIDTH 9 0
BBX 8 10 1 0
BITMAP
FC
C2
82
86
98
E6
83
83
C3
FE
ENDCHAR
STARTCHAR 0043
ENCODING 67
SWIDTH 648 0
DWIDTH 9 0
BBX 9 10 0 0
BITMAP
1F80
2080
4080
4000
C000
C000
4000
4000
6080
3F00
ENDCHAR
STARTCHAR 0044
ENCODING 68
SWIDTH 720 0
DWIDTH 10 0
BBX 9 10 1 0
BITMAP
FC00
8200
8100
8100
8180
8180
8100
8100
C200
FC00
ENDCHAR
STARTCHAR 0045
ENCODING 69
SWIDTH 576 0
DWIDTH 8 0
BBX 7 10 1 0
BITMAP
FE
82
80
80
FC
80
80
80
80
FE
ENDCHAR
STARTCHAR 0046
ENCODING 70
SWIDTH 504 0
DWIDTH 7 0
BBX 8 10 0 0
BITMAP
7F
41
40
40
7E
42
40
40
40
E0
ENDCHAR
STARTCHAR 0047
ENCODING 71
SWIDTH 720 0
DWIDTH 10 0
BBX 9 10 1 0
BITMAP
3F00
4100
C000
8000
8000
8780
8080
8080
4180
3F00
ENDCHAR
STARTCHAR 0048
ENCODING 72
SWIDTH 720 0
DWIDTH 10 0
BBX 9 10 1 0
BITMAP
C180
8100
8100
8100
FF00
8100
8100
8100
8100
C180
ENDCHAR
STARTCHAR 0049
ENCODING 73
SWIDTH 216 0
DWIDTH 3 0
BBX 2 10 1 0
BITMAP
C0
C0
C0
C0
C0
C0
C0
C0
C0
C0
ENDCHAR
STARTCHAR 004A
ENCODING 74
SWIDTH 432 0
DWIDTH 6 0
BBX 6 10 0 0
BITMAP
1C
08
08
08
08
08
48
C8
88
F8
ENDCHAR
STARTCHAR 004B
ENCODING 75
SWIDTH 576 0
DWIDTH 8 0
BBX 8 10 1 0
BITMAP
C6
84
88
90
B0
C8
84
86
82
C7
ENDCHAR
STARTCHAR 004C
ENCODING 76
SWIDTH 576 0
DWIDTH 8 0
BBX 7 10 1 0
BITMAP
C0
80
80
80
80
80
80
80
80
FE
ENDCHAR
STARTCHAR 004D
ENCODING 77
SWIDTH 792 0
DWIDTH 11 0
BBX 11 10 0 0
BITMAP
E0E0
60C0
50C0
5140
5940
4A40
4E40
4440
4440
E0E0
ENDCHAR
STARTCHAR 004E
ENCODING 78
SWIDTH 720 0
DWIDTH 10 0
BBX 10 10 0 0
BITMAP
E1C0
7080
5880
4880
4480
4680
4280
4180
4180
E080
ENDCHAR
STARTCHAR 004F
ENCODING 79
SWIDTH 720 0
DWIDTH 10 0
BBX 10 10 0 0
BITMAP
1F00
2080
40C0
4040
4040
C040
4040
40C0
2080
1F00
ENDCHAR
STARTCHAR 0050
ENCODING 80
SWIDTH 576 0
DWIDTH 8 0
BBX 7 10 1 0
BITMAP
FC
C6
82
82
84
F8
80
80
80
C0
ENDCHAR
STARTCHAR 0051
ENCODING 81
SWIDTH 720 0
DWIDTH 10 0
BBX 10 12 0 -2
BITMAP
1F00
2080
40C0
4040
4040
C040
4040
44C0
2480
1F00
0200
01C0
ENDCHAR
STARTCHAR 0052
ENCODING 82
SWIDTH 576 0
DWIDTH 8 0
BBX 8 10 1 0
BITMAP
FC
82
82
86
8C
F8
84
86
82
C7
ENDCHAR
STARTCHAR 0053
ENCODING 83
SWIDTH 576 0
DWIDTH 8 0
BBX 8 10 0 0
BITMAP
3E
42
40
40
7C
0E
03
81
C2
7C
ENDCHAR
STARTCHAR 0054
ENCODING 84
SWIDTH 576 0
DWIDTH 8 0
BBX 8 10 0 0
BITMAP
FF
89
08
08
08
08
08
08
08
18
ENDCHAR
STARTCHAR 0055
ENCODING 85
SWIDTH 648 0
DWIDTH 9 0
BBX 9 10 0 0
BITMAP
E180
4080
4080
4080
4080
4080
4080
4080
6100
3E00
ENDCHAR
STARTCHAR 0056
ENCODING 86
SWIDTH 648 0
DWIDTH 9 0
BBX 9 10 0 0
BITMAP
C180
4100
4100
4100
6100
2200
2200
1400
1C00
0800
ENDCHAR
STARTCHAR 0057
ENCODING 87
SWIDTH 864 0
DWIDTH 12 0
BBX 13 10 0 0
BITMAP
E738
4210
4210
4210
4520
2520
2920
28A0
38C0
10C0
ENDCHAR
STARTCHAR 0058
ENCODING 88
SWIDTH 648 0
DWIDTH 9 0
BBX 9 10 0 0
BITMAP
E300
6200
2200
1400
1800
1C00
1600
2200
4100
E380
ENDCHAR
STARTCHAR 0059
ENCODING 89
SWIDTH 648 0
DWIDTH 9 0
BBX 9 10 0 0
BITMAP
E180
4100
6100
3200
1400
0800
0800
0800
0800
1C00
ENDCHAR
STARTCHAR 005A
ENCODING 90
SWIDTH 504 0
DWIDTH 7 0
BBX 7 10 0 0
BITMAP
7E
02
04
0C
18
10
20
60
42
FE
ENDCHAR
STARTCHAR 005B
ENCODING 91
SWIDTH 288 0
DWIDTH 4 0
BBX 3 12 1 -2
BITMAP
E0
80
80
80
80
80
80
80
80
80
80
E0
ENDCHAR
STARTCHAR 005C
ENCODING 92
SWIDTH 216 0
DWIDTH 3 0
BBX 4 11 0 -1
BITMAP
80
80
80
80
40
40
40
20
20
20
10
ENDCHAR
STARTCHAR 005D
ENCODING 93
SWIDTH 288 0
DWIDTH 4 0
BBX 2 12 1 -2
BITMAP
C0
40
40
40
40
40
40
40
40
40
40
C0
ENDCHAR
STARTCHAR 005E
ENCODING 94
SWIDTH 936 0
DWIDTH 13 0
BBX 8 4 3 6
BITMAP
18
24
42
81
ENDCHAR
STARTCHAR 005F
ENCODING 95
SWIDTH 432 0
DWIDTH 6 0
BBX 7 1 0 -3
BITMAP
FE
ENDCHAR
STARTCHAR 0060
ENCODING 96
SWIDTH 432 0
DWIDTH 6 0
BBX 3 3 2 7
BITMAP
80
C0
20
ENDCHAR
STARTCHAR 0061
ENCODING 97
SWIDTH 648 0
DWIDTH 9 0
BBX 9 10 0 0
BITMAP
0800
1C00
1400
2600
2200
2200
7F00
4100
4100
C180
ENDCHAR
STARTCHAR 0062
ENCODING 98
SWIDTH 648 0
DWIDTH 9 0
BBX 8 10 1 0
BITMAP
FC
C2
82
86
98
E6
83
83
C3
FE
ENDCHAR
STARTCHAR 0063
ENCODING 99
SWIDTH 648 0
DWIDTH 9 0
BBX 9 10 0 0
BITMAP
1F80
2080
4080
4000
C000
C000
4000
4000
6080
3F00
ENDCHAR
STARTCHAR 0064
ENCODING 100
SWIDTH 720 0
DWIDTH 10 0
BBX 9 10 1 0
BITMAP
FC00
8200
8100
8100
8180
8180
8100
8100
C200
FC00
ENDCHAR
STARTCHAR 0065
ENCODING 101
SWIDTH 576 0
DWIDTH 8 0
BBX 7 10 1 0
BITMAP
FE
82
80
80
FC
80
80
80
80
FE
ENDCHAR
STARTCHAR 0066
ENCODING 102
SWIDTH 504 0
DWIDTH 7 0
BBX 8 10 0 0
BITMAP
7F
41
40
40
7E
42
40
40
40
E0
ENDCHAR
STARTCHAR 0067
ENCODING 103
SWIDTH 720 0
DWIDTH 10 0
BBX 9 10 1 0
BITMAP
3F00
4100
C000
8000
8000
8780
8080
8080
4180
3F00
ENDCHAR
STARTCHAR 0068
ENCODING 104
SWIDTH 720 0
DWIDTH 10 0
BBX 9 10 1 0
BITMAP
C180
8100
8100
8100
FF00
8100
8100
8100
8100
C180
ENDCHAR
STARTCHAR 0069
ENCODING 105
SWIDTH 216 0
DWIDTH 3 0
BBX 2 10 1 0
BITMAP
C0
C0
C0
C0
C0
C0
C0
C0
C0
C0
ENDCHAR
STARTCHAR 006A
ENCODING 106
SWIDTH 432 0
DWIDTH 6 0
BBX 6 10 0 0
BITMAP
1C
08
08
08
08
08
48
C8
88
F8
ENDCHAR
STARTCHAR 006B
ENCODING 107
SWIDTH 576 0
DWIDTH 8 0
BBX 8 10 1 0
BITMAP
C6
84
88
90
B0
C8
84
86
82
C7
ENDCHAR
STARTCHAR 006C
ENCODING 108
SWIDTH 576 0
DWIDTH 8 0
BBX 7 10 1 0
BITMAP
C0
80
80
80
80
80
80
80
80
FE
ENDCHAR
STARTCHAR 006D
ENCODING 109
SWIDTH 792 0
DWIDTH 11 0
BBX 11 10 0 0
BITMAP
E0E0
60C0
50C0
5140
5940
4A40
4E40
4440
4440
E0E0
ENDCHAR
STARTCHAR 006E
ENCODING 110
SWIDTH 720 0
DWIDTH 10 0
BBX 10 10 0 0
BITMAP
E1C0
7080
5880
4880
4480
4680
4280
4180
4180
E080
ENDCHAR
STARTCHAR 006F
ENCODING 111
SWIDTH 720 0
DWIDTH 10 0
BBX 10 10 0 0
BITMAP
1F00
2080
40C0
4040
4040
C040
4040
40C0
2080
1F00
ENDCHAR
STARTCHAR 0070
ENCODING 112
SWIDTH 576 0
DWIDTH 8 0
BBX 7 10 1 0
BITMAP
FC
C6
82
82
84
F8
80
80
80
C0
ENDCHAR
STARTCHAR 0071
ENCODING 113
SWIDTH 720 0
DWIDTH 10 0
BBX 10 12 0 -2
BITMAP
1F00
2080
40C0
4040
4040
C040
4040
44C0
2480
1F00
0200
01C0
ENDCHAR
STARTCHAR 0072
ENCODING 114
SWIDTH 576 0
DWIDTH 8 0
BBX 8 10 1 0
BITMAP
FC
82
82
86
8C
F8
84
86
82
C7
ENDCHAR
STARTCHAR 0073
ENCODING 115
SWIDTH 576 0
DWIDTH 8 0
BBX 8 10 0 0
BITMAP
3E
42
40
40
7C
0E
03
81
C2
7C
ENDCHAR
STARTCHAR 0074
ENCODING 116
SWIDTH 576 0
DWIDTH 8 0
BBX 8 10 0 0
BITMAP
FF
89
08
08
08
08
08
08
08
18
ENDCHAR
STARTCHAR 0075
ENCODING 117
SWIDTH 648 0
DWIDTH 9 0
BBX 9 10 0 0
BITMAP
E180
4080
4080
4080
4080
4080
4080
4080
6100
3E00
ENDCHAR
STARTCHAR 0076
ENCODING 118
SWIDTH 648 0
DWIDTH 9 0
BBX 9 10 0 0
BITMAP
C180
4100
4100
4100
6100
2200
2200
1400
1C00
0800
ENDCHAR
STARTCHAR 0077
ENCODING 119
SWIDTH 864 0
DWIDTH 12 0
BBX 13 10 0 0
BITMAP
E738
4210
4210
4210
4520
2520
2920
28A0
38C0
10C0
ENDCHAR
STARTCHAR 0078
ENCODING 120
SWIDTH 648 0
DWIDTH 9 0
BBX 9 10 0 0
BITMAP
E300
6200
2200
1400
1800
1C00
1600
2200
4100
E380
ENDCHAR
STARTCHAR 0079
ENCODING 121
SWIDTH 648 0
DWIDTH 9 0
BBX 9 10 0 0
BITMAP
E180
4100
6100
3200
1400
0800
0800
0800
0800
1C00
ENDCHAR
STARTCHAR 007A
ENCODING 122
SWIDTH 504 0
DWIDTH 7 0
BBX 7 10 0 0
BITMAP
7E
02
04
0C
18
10
20
60
42
FE
ENDCHAR
STARTCHAR 007B
ENCODING 123
SWIDTH 432 0
DWIDTH 6 0
BBX 5 12 1 -2
BITMAP
30
20
20
20
20
C0
20
20
20
20
20
18
ENDCHAR
STARTCHAR 007C
ENCODING 124
SWIDTH 432 0
DWIDTH 6 0
BBX 1 14 3 -3
BITMAP
80
80
80
80
80
80
80
80
80
80
80
80
80
80
ENDCHAR
STARTCHAR 007D
ENCODING 125
SWIDTH 432 0
DWIDTH 6 0
BBX 5 12 1 -2
BITMAP
60
20
20
20
20
18
20
20
20
20
20
C0
ENDCHAR
STARTCHAR 007E
ENCODING 126
SWIDTH 792 0
DWIDTH 11 0
BBX 9 2 1 3
BITMAP
7880
8700
ENDCHAR
STARTCHAR 0080
ENCODING 128
SWIDTH 648 0
DWIDTH 9 0
BBX 9 13 0 0
BITMAP
1000
0800
0000
0800
1C00
1400
2600
2200
2200
7F00
4100
4100
C180
ENDCHAR
STARTCHAR 0081
ENCODING 129
SWIDTH 648 0
DWIDTH 9 0
BBX 9 14 0 0
BITMAP
0400
0400
0800
0000
0800
1C00
1400
2600
2200
2200
7F00
4100
4100
C180
ENDCHAR
STARTCHAR 008D
ENCODING 141
SWIDTH 648 0
DWIDTH 9 0
BBX 9 15 0 0
BITMAP
0200
0400
0000
1C00
0000
0800
1C00
1400
2600
2200
2200
7F00
4100
4100
C180
ENDCHAR
STARTCHAR 008E
ENCODING 142
SWIDTH 648 0
DWIDTH 9 0
BBX 9 15 0 0
BITMAP
2000
1000
0000
1C00
0000
0800
1C00
1400
2600
2200
2200
7F00
4100
4100
C180
ENDCHAR
STARTCHAR 008F
ENCODING 143
SWIDTH 648 0
DWIDTH 9 0
BBX 9 16 0 0
BITMAP
0800
0400
0800
0000
1C00
0000
0800
1C00
1400
2600
2200
2200
7F00
4100
4100
C180
ENDCHAR
STARTCHAR 0090
ENCODING 144
SWIDTH 576 0
DWIDTH 8 0
BBX 8 15 1 0
BITMAP
01
02
1C
20
00
FE
82
80
80
FC
80
80
80
80
FE
ENDCHAR
STARTCHAR 009D
ENCODING 157
SWIDTH 720 0
DWIDTH 10 0
BBX 10 14 0 0
BITMAP
0300
0480
0040
0080
1F00
2080
40C0
4040
4040
C040
4040
40C0
2080
1F00
ENDCHAR
STARTCHAR 009E
ENCODING 158
SWIDTH 720 0
DWIDTH 10 0
BBX 10 14 0 0
BITMAP
1800
0480
0040
0080
1F00
2080
40C0
4040
4040
C040
4040
40C0
2080
1F00
ENDCHAR
STARTCHAR 00A0
ENCODING 160
SWIDTH 504 0
DWIDTH 7 0
BBX 0 0 0 0
BITMAP
ENDCHAR
STARTCHAR 00A1
ENCODING 161
SWIDTH 648 0
DWIDTH 9 0
BBX 9 15 0 0
BITMAP
0200
0400
0000
1C00
0000
0800
1C00
1400
2600
2200
2200
7F00
4100
4100
C180
ENDCHAR
STARTCHAR 00A2
ENCODING 162
SWIDTH 648 0
DWIDTH 9 0
BBX 9 15 0 0
BITMAP
2000
1000
0000
1C00
0000
0800
1C00
1400
2600
2200
2200
7F00
4100
4100
C180
ENDCHAR
STARTCHAR 00A3
ENCODING 163
SWIDTH 648 0
DWIDTH 9 0
BBX 9 16 0 0
BITMAP
0800
0400
0800
0000
1C00
0000
0800
1C00
1400
2600
2200
2200
7F00
4100
4100
C180
ENDCHAR
STARTCHAR 00A4
ENCODING 164
SWIDTH 648 0
DWIDTH 9 0
BBX 9 15 0 0
BITMAP
1C00
0000
0000
1C00
0000
0800
1C00
1400
2600
2200
2200
7F00
4100
4100
C180
ENDCHAR
STARTCHAR 00A5
ENCODING 165
SWIDTH 648 0
DWIDTH 9 0
BBX 9 14 0 -1
BITMAP
1C00
0000
0800
1C00
1400
2600
2200
2200
7F00
4100
4100
C180
0000
1800
ENDCHAR
STARTCHAR 00A6
ENCODING 166
SWIDTH 720 0
DWIDTH 10 0
BBX 10 15 0 0
BITMAP
0E00
1000
0080
0040
0080
1F00
2080
40C0
4040
4040
C040
4040
40C0
2080
1F00
ENDCHAR
STARTCHAR 00A7
ENCODING 167
SWIDTH 720 0
DWIDTH 10 0
BBX 10 14 0 0
BITMAP
0300
0480
0040
0080
1F00
2080
40C0
4040
4040
C040
4040
40C0
2080
1F00
ENDCHAR
STARTCHAR 00A8
ENCODING 168
SWIDTH 648 0
DWIDTH 9 0
BBX 9 13 0 0
BITMAP
1800
0400
0000
E180
4080
4080
4080
4080
4080
4080
4080
6100
3E00
ENDCHAR
STARTCHAR 00A9
ENCODING 169
SWIDTH 720 0
DWIDTH 10 0
BBX 10 14 0 0
BITMAP
1800
0480
0040
0080
1F00
2080
40C0
4040
4040
C040
4040
40C0
2080
1F00
ENDCHAR
STARTCHAR 00AA
ENCODING 170
SWIDTH 720 0
DWIDTH 10 0
BBX 10 15 0 0
BITMAP
0200
0200
0480
0040
0080
1F00
2080
40C0
4040
4040
C040
4040
40C0
2080
1F00
ENDCHAR
STARTCHAR 00AB
ENCODING 171
SWIDTH 720 0
DWIDTH 10 0
BBX 10 15 0 0
BITMAP
0E00
1000
0080
0040
0080
1F00
2080
40C0
4040
4040
C040
4040
40C0
2080
1F00
ENDCHAR
STARTCHAR 00AC
ENCODING 172
SWIDTH 648 0
DWIDTH 9 0
BBX 9 13 0 0
BITMAP
0C00
0200
0000
E180
4080
4080
4080
4080
4080
4080
4080
6100
3E00
ENDCHAR
STARTCHAR 00AD
ENCODING 173
SWIDTH 648 0
DWIDTH 9 0
BBX 10 14 0 0
BITMAP
0200
0400
0040
0040
E180
4080
4080
4080
4080
4080
4080
4080
6100
3E00
ENDCHAR
STARTCHAR 00AE
ENCODING 174
SWIDTH 720 0
DWIDTH 10 0
BBX 10 15 0 -2
BITMAP
0080
0040
0080
1F00
2080
40C0
4040
4040
C040
4040
40C0
2080
1B00
0400
0400
ENDCHAR
STARTCHAR 00AF
ENCODING 175
SWIDTH 648 0
DWIDTH 9 0
BBX 10 14 0 0
BITMAP
1000
0800
0440
0040
E180
4080
4080
4080
4080
4080
4080
4080
6100
3E00
ENDCHAR
STARTCHAR 00B0
ENCODING 176
SWIDTH 720 0
DWIDTH 10 0
BBX 10 15 0 1
BITMAP
0080
0080
0D00
0200
0000
1F00
2080
40C0
4040
4040
C040
4040
40C0
2080
1F00
ENDCHAR
STARTCHAR 00B1
ENCODING 177
SWIDTH 648 0
DWIDTH 9 0
BBX 10 14 0 0
BITMAP
0200
0400
0040
0040
E180
4080
4080
4080
4080
4080
4080
4080
6100
3E00
ENDCHAR
STARTCHAR 00B2
ENCODING 178
SWIDTH 648 0
DWIDTH 9 0
BBX 9 13 0 0
BITMAP
3000
0800
0000
E180
4100
6100
3200
1400
0800
0800
0800
0800
1C00
ENDCHAR
STARTCHAR 00B3
ENCODING 179
SWIDTH 648 0
DWIDTH 9 0
BBX 9 13 0 0
BITMAP
0E00
1000
0000
E180
4100
6100
3200
1400
0800
0800
0800
0800
1C00
ENDCHAR
STARTCHAR 00B4
ENCODING 180
SWIDTH 216 0
DWIDTH 3 0
BBX 3 13 1 0
BITMAP
60
80
00
C0
C0
C0
C0
C0
C0
C0
C0
C0
C0
ENDCHAR
STARTCHAR 00B5
ENCODING 181
SWIDTH 216 0
DWIDTH 3 0
BBX 3 13 0 0
BITMAP
C0
20
00
60
60
60
60
60
60
60
60
60
60
ENDCHAR
STARTCHAR 00B6
ENCODING 182
SWIDTH 720 0
DWIDTH 10 0
BBX 10 15 0 -2
BITMAP
0C00
0200
0000
1F00
2080
40C0
4040
4040
C040
4040
40C0
2080
1B00
0400
0400
ENDCHAR
STARTCHAR 00B8
ENCODING 184
SWIDTH 216 0
DWIDTH 3 0
BBX 4 13 0 0
BITMAP
10
E0
00
60
60
60
60
60
60
60
60
60
60
ENDCHAR
STARTCHAR 00B9
ENCODING 185
SWIDTH 720 0
DWIDTH 10 0
BBX 10 13 0 0
BITMAP
0200
0400
0000
1F00
2080
40C0
4040
4040
C040
4040
40C0
2080
1F00
ENDCHAR
STARTCHAR 00BA
ENCODING 186
SWIDTH 648 0
DWIDTH 9 0
BBX 10 14 0 0
BITMAP
0200
0400
0040
0040
E180
4080
4080
4080
4080
4080
4080
4080
6100
3E00
ENDCHAR
STARTCHAR 00BB
ENCODING 187
SWIDTH 648 0
DWIDTH 9 0
BBX 10 15 0 0
BITMAP
0E00
0000
0000
0040
0040
E180
4080
4080
4080
4080
4080
4080
4080
6100
3E00
ENDCHAR
STARTCHAR 00BC
ENCODING 188
SWIDTH 720 0
DWIDTH 10 0
BBX 10 13 0 0
BITMAP
0800
0400
0000
1F00
2080
40C0
4040
4040
C040
4040
40C0
2080
1F00
ENDCHAR
STARTCHAR 00BD
ENCODING 189
SWIDTH 720 0
DWIDTH 10 0
BBX 10 14 0 0
BITMAP
0200
0200
0800
0000
1F00
2080
40C0
4040
4040
C040
4040
40C0
2080
1F00
ENDCHAR
STARTCHAR 00BE
ENCODING 190
SWIDTH 720 0
DWIDTH 10 0
BBX 10 13 0 0
BITMAP
0E00
1000
0000
1F00
2080
40C0
4040
4040
C040
4040
40C0
2080
1F00
ENDCHAR
STARTCHAR 00BF
ENCODING 191
SWIDTH 648 0
DWIDTH 9 0
BBX 10 14 0 -1
BITMAP
0040
0040
E180
4080
4080
4080
4080
4080
4080
4080
6100
3E00
0000
0C00
ENDCHAR
STARTCHAR 00C0
ENCODING 192
SWIDTH 648 0
DWIDTH 9 0
BBX 9 15 0 0
BITMAP
8000
4000
2C00
1000
0000
0800
1C00
1400
2600
2200
2200
7F00
4100
4100
C180
ENDCHAR
STARTCHAR 00C1
ENCODING 193
SWIDTH 648 0
DWIDTH 9 0
BBX 9 13 0 0
BITMAP
0400
0800
0000
0800
1C00
1400
2600
2200
2200
7F00
4100
4100
C180
ENDCHAR
STARTCHAR 00C2
ENCODING 194
SWIDTH 648 0
DWIDTH 9 0
BBX 9 13 0 0
BITMAP
0C00
1000
0000
0800
1C00
1400
2600
2200
2200
7F00
4100
4100
C180
ENDCHAR
STARTCHAR 00C3
ENCODING 195
SWIDTH 648 0
DWIDTH 9 0
BBX 9 15 0 0
BITMAP
0080
0100
0C00
1000
0000
0800
1C00
1400
2600
2200
2200
7F00
4100
4100
C180
ENDCHAR
STARTCHAR 00C4
ENCODING 196
SWIDTH 648 0
DWIDTH 9 0
BBX 9 16 0 0
BITMAP
0200
0100
0200
0C00
1000
0000
0800
1C00
1400
2600
2200
2200
7F00
4100
4100
C180
ENDCHAR
STARTCHAR 00C5
ENCODING 197
SWIDTH 648 0
DWIDTH 9 0
BBX 9 15 0 0
BITMAP
1C00
0000
0C00
1000
0000
0800
1C00
1400
2600
2200
2200
7F00
4100
4100
C180
ENDCHAR
STARTCHAR 00C6
ENCODING 198
SWIDTH 648 0
DWIDTH 9 0
BBX 9 15 0 -2
BITMAP
0C00
1000
0000
0800
1C00
1400
2600
2200
2200
7F00
4100
4100
C180
0000
1800
ENDCHAR
STARTCHAR 00C7
ENCODING 199
SWIDTH 720 0
DWIDTH 10 0
BBX 10 10 0 0
BITMAP
7E00
6100
6080
6080
F8C0
60C0
6080
6080
6100
7E00
ENDCHAR
STARTCHAR 00C8
ENCODING 200
SWIDTH 576 0
DWIDTH 8 0
BBX 7 14 1 0
BITMAP
08
08
10
00
FE
82
80
80
FC
80
80
80
80
FE
ENDCHAR
STARTCHAR 00C9
ENCODING 201
SWIDTH 576 0
DWIDTH 8 0
BBX 7 13 1 0
BITMAP
08
10
00
FE
82
80
80
FC
80
80
80
80
FE
ENDCHAR
STARTCHAR 00CA
ENCODING 202
SWIDTH 576 0
DWIDTH 8 0
BBX 7 13 1 0
BITMAP
18
20
00
FE
82
80
80
FC
80
80
80
80
FE
ENDCHAR
STARTCHAR 00CB
ENCODING 203
SWIDTH 576 0
DWIDTH 8 0
BBX 7 12 1 -2
BITMAP
FE
82
80
80
FC
80
80
80
80
FE
00
30
ENDCHAR
STARTCHAR 00CC
ENCODING 204
SWIDTH 216 0
DWIDTH 3 0
BBX 2 14 1 0
BITMAP
C0
40
80
00
C0
C0
C0
C0
C0
C0
C0
C0
C0
C0
ENDCHAR
STARTCHAR 00CD
ENCODING 205
SWIDTH 576 0
DWIDTH 8 0
BBX 7 15 1 0
BITMAP
38
00
18
20
00
FE
82
80
80
FC
80
80
80
80
FE
ENDCHAR
STARTCHAR 00CE
ENCODING 206
SWIDTH 216 0
DWIDTH 3 0
BBX 2 12 1 -2
BITMAP
C0
C0
C0
C0
C0
C0
C0
C0
C0
C0
00
C0
ENDCHAR
STARTCHAR 00CF
ENCODING 207
SWIDTH 648 0
DWIDTH 9 0
BBX 9 13 0 0
BITMAP
0E00
1000
0000
E180
4100
6100
3200
1400
0800
0800
0800
0800
1C00
ENDCHAR
STARTCHAR 00D0
ENCODING 208
SWIDTH 648 0
DWIDTH 9 0
BBX 10 12 0 1
BITMAP
0040
0040
E180
4080
4080
4080
4080
4080
4080
4080
6100
3E00
ENDCHAR
STARTCHAR 00D1
ENCODING 209
SWIDTH 648 0
DWIDTH 9 0
BBX 9 14 0 0
BITMAP
0C00
0400
0800
0000
E180
4080
4080
4080
4080
4080
4080
4080
6100
3E00
ENDCHAR
STARTCHAR 00D2
ENCODING 210
SWIDTH 720 0
DWIDTH 10 0
BBX 10 15 0 0
BITMAP
4000
2000
0C00
0200
0000
1F00
2080
40C0
4040
4040
C040
4040
40C0
2080
1F00
ENDCHAR
STARTCHAR 00D3
ENCODING 211
SWIDTH 720 0
DWIDTH 10 0
BBX 10 15 0 0
BITMAP
0040
0080
0D00
0200
0000
1F00
2080
40C0
4040
4040
C040
4040
40C0
2080
1F00
ENDCHAR
STARTCHAR 00D4
ENCODING 212
SWIDTH 720 0
DWIDTH 10 0
BBX 10 13 0 0
BITMAP
0C00
0200
0000
1F00
2080
40C0
4040
4040
C040
4040
40C0
2080
1F00
ENDCHAR
STARTCHAR 00D5
ENCODING 213
SWIDTH 720 0
DWIDTH 10 0
BBX 10 14 0 0
BITMAP
0200
0200
0800
0000
1F00
2080
40C0
4040
4040
C040
4040
40C0
2080
1F00
ENDCHAR
STARTCHAR 00D6
ENCODING 214
SWIDTH 720 0
DWIDTH 10 0
BBX 10 13 0 0
BITMAP
0080
0040
0080
1F00
2080
40C0
4040
4040
C040
4040
40C0
2080
1F00
ENDCHAR
STARTCHAR 00D7
ENCODING 215
SWIDTH 576 0
DWIDTH 8 0
BBX 7 13 1 0
BITMAP
20
10
00
FE
82
80
80
FC
80
80
80
80
FE
ENDCHAR
STARTCHAR 00D8
ENCODING 216
SWIDTH 648 0
DWIDTH 9 0
BBX 10 14 0 0
BITMAP
1000
0800
0440
0040
E180
4080
4080
4080
4080
4080
4080
4080
6100
3E00
ENDCHAR
STARTCHAR 00D9
ENCODING 217
SWIDTH 648 0
DWIDTH 9 0
BBX 10 14 0 0
BITMAP
0200
0400
0040
0040
E180
4080
4080
4080
4080
4080
4080
4080
6100
3E00
ENDCHAR
STARTCHAR 00DA
ENCODING 218
SWIDTH 648 0
DWIDTH 9 0
BBX 9 13 0 0
BITMAP
0600
0800
0000
E180
4080
4080
4080
4080
4080
4080
4080
6100
3E00
ENDCHAR
STARTCHAR 00DB
ENCODING 219
SWIDTH 648 0
DWIDTH 9 0
BBX 9 13 0 0
BITMAP
0C00
0200
0000
E180
4080
4080
4080
4080
4080
4080
4080
6100
3E00
ENDCHAR
STARTCHAR 00DC
ENCODING 220
SWIDTH 648 0
DWIDTH 9 0
BBX 10 12 0 1
BITMAP
0040
0040
E180
4080
4080
4080
4080
4080
4080
4080
6100
3E00
ENDCHAR
STARTCHAR 00DD
ENCODING 221
SWIDTH 648 0
DWIDTH 9 0
BBX 9 13 0 0
BITMAP
0400
0800
0000
E180
4100
6100
3200
1400
0800
0800
0800
0800
1C00
ENDCHAR
STARTCHAR 00DE
ENCODING 222
SWIDTH 576 0
DWIDTH 8 0
BBX 7 14 1 0
BITMAP
08
08
10
00
FE
82
80
80
FC
80
80
80
80
FE
ENDCHAR
STARTCHAR 00DF
ENCODING 223
SWIDTH 648 0
DWIDTH 9 0
BBX 9 10 0 0
BITMAP
3E00
6100
4100
4300
5C00
4300
4180
5080
5100
FF00
ENDCHAR
STARTCHAR 00E0
ENCODING 224
SWIDTH 648 0
DWIDTH 9 0
BBX 9 13 0 0
BITMAP
1000
0800
0000
0800
1C00
1400
2600
2200
2200
7F00
4100
4100
C180
ENDCHAR
STARTCHAR 00E1
ENCODING 225
SWIDTH 648 0
DWIDTH 9 0
BBX 9 13 0 0
BITMAP
0400
0800
0000
0800
1C00
1400
2600
2200
2200
7F00
4100
4100
C180
ENDCHAR
STARTCHAR 00E2
ENCODING 226
SWIDTH 648 0
DWIDTH 9 0
BBX 9 13 0 0
BITMAP
0C00
1000
0000
0800
1C00
1400
2600
2200
2200
7F00
4100
4100
C180
ENDCHAR
STARTCHAR 00E3
ENCODING 227
SWIDTH 648 0
DWIDTH 9 0
BBX 9 13 0 0
BITMAP
1C00
0000
0000
0800
1C00
1400
2600
2200
2200
7F00
4100
4100
C180
ENDCHAR
STARTCHAR 00E4
ENCODING 228
SWIDTH 648 0
DWIDTH 9 0
BBX 9 14 0 0
BITMAP
0400
0400
0800
0000
0800
1C00
1400
2600
2200
2200
7F00
4100
4100
C180
ENDCHAR
STARTCHAR 00E5
ENCODING 229
SWIDTH 648 0
DWIDTH 9 0
BBX 9 12 0 -2
BITMAP
0800
1C00
1400
2600
2200
2200
7F00
4100
4100
C180
0000
1800
ENDCHAR
STARTCHAR 00E6
ENCODING 230
SWIDTH 648 0
DWIDTH 9 0
BBX 9 12 0 1
BITMAP
1C00
0000
0800
1C00
1400
2600
2200
2200
7F00
4100
4100
C180
ENDCHAR
STARTCHAR 00E7
ENCODING 231
SWIDTH 648 0
DWIDTH 9 0
BBX 9 13 0 -3
BITMAP
1F80
2080
4080
4000
C000
C000
4000
4000
6080
3F00
0000
0200
0E00
ENDCHAR
STARTCHAR 00E8
ENCODING 232
SWIDTH 576 0
DWIDTH 8 0
BBX 7 13 1 0
BITMAP
20
10
00
FE
82
80
80
FC
80
80
80
80
FE
ENDCHAR
STARTCHAR 00E9
ENCODING 233
SWIDTH 576 0
DWIDTH 8 0
BBX 7 13 1 0
BITMAP
08
10
00
FE
82
80
80
FC
80
80
80
80
FE
ENDCHAR
STARTCHAR 00EA
ENCODING 234
SWIDTH 576 0
DWIDTH 8 0
BBX 7 13 1 0
BITMAP
18
20
00
FE
82
80
80
FC
80
80
80
80
FE
ENDCHAR
STARTCHAR 00EB
ENCODING 235
SWIDTH 576 0
DWIDTH 8 0
BBX 7 12 1 1
BITMAP
78
00
FE
82
80
80
FC
80
80
80
80
FE
ENDCHAR
STARTCHAR 00EC
ENCODING 236
SWIDTH 216 0
DWIDTH 3 0
BBX 3 13 0 0
BITMAP
C0
20
00
60
60
60
60
60
60
60
60
60
60
ENDCHAR
STARTCHAR 00ED
ENCODING 237
SWIDTH 216 0
DWIDTH 3 0
BBX 3 13 1 0
BITMAP
60
80
00
C0
C0
C0
C0
C0
C0
C0
C0
C0
C0
ENDCHAR
STARTCHAR 00EE
ENCODING 238
SWIDTH 216 0
DWIDTH 3 0
BBX 4 13 0 0
BITMAP
60
90
00
60
60
60
60
60
60
60
60
60
60
ENDCHAR
STARTCHAR 00EF
ENCODING 239
SWIDTH 216 0
DWIDTH 3 0
BBX 4 13 0 0
BITMAP
10
E0
00
60
60
60
60
60
60
60
60
60
60
ENDCHAR
STARTCHAR 00F0
ENCODING 240
SWIDTH 648 0
DWIDTH 9 0
BBX 9 15 0 0
BITMAP
1C00
0000
0000
1C00
0000
0800
1C00
1400
2600
2200
2200
7F00
4100
4100
C180
ENDCHAR
STARTCHAR 00F1
ENCODING 241
SWIDTH 720 0
DWIDTH 10 0
BBX 10 10 0 0
BITMAP
7E00
6100
6080
6080
F8C0
60C0
6080
6080
6100
7E00
ENDCHAR
STARTCHAR 00F2
ENCODING 242
SWIDTH 720 0
DWIDTH 10 0
BBX 10 13 0 0
BITMAP
0800
0400
0000
1F00
2080
40C0
4040
4040
C040
4040
40C0
2080
1F00
ENDCHAR
STARTCHAR 00F3
ENCODING 243
SWIDTH 720 0
DWIDTH 10 0
BBX 10 13 0 0
BITMAP
0200
0400
0000
1F00
2080
40C0
4040
4040
C040
4040
40C0
2080
1F00
ENDCHAR
STARTCHAR 00F4
ENCODING 244
SWIDTH 720 0
DWIDTH 10 0
BBX 10 13 0 0
BITMAP
0C00
0200
0000
1F00
2080
40C0
4040
4040
C040
4040
40C0
2080
1F00
ENDCHAR
STARTCHAR 00F5
ENCODING 245
SWIDTH 720 0
DWIDTH 10 0
BBX 10 13 0 0
BITMAP
0E00
1000
0000
1F00
2080
40C0
4040
4040
C040
4040
40C0
2080
1F00
ENDCHAR
STARTCHAR 00F6
ENCODING 246
SWIDTH 720 0
DWIDTH 10 0
BBX 10 13 0 0
BITMAP
0A00
0A00
0000
1F00
2080
40C0
4040
4040
C040
4040
40C0
2080
1F00
ENDCHAR
STARTCHAR 00F7
ENCODING 247
SWIDTH 720 0
DWIDTH 10 0
BBX 10 13 0 0
BITMAP
0080
0040
0080
1F00
2080
40C0
4040
4040
C040
4040
40C0
2080
1F00
ENDCHAR
STARTCHAR 00F8
ENCODING 248
SWIDTH 648 0
DWIDTH 9 0
BBX 9 12 0 -2
BITMAP
E180
4080
4080
4080
4080
4080
4080
4080
6100
3E00
0000
0C00
ENDCHAR
STARTCHAR 00F9
ENCODING 249
SWIDTH 648 0
DWIDTH 9 0
BBX 9 13 0 0
BITMAP
1800
0400
0000
E180
4080
4080
4080
4080
4080
4080
4080
6100
3E00
ENDCHAR
STARTCHAR 00FA
ENCODING 250
SWIDTH 648 0
DWIDTH 9 0
BBX 9 13 0 0
BITMAP
0600
0800
0000
E180
4080
4080
4080
4080
4080
4080
4080
6100
3E00
ENDCHAR
STARTCHAR 00FB
ENCODING 251
SWIDTH 648 0
DWIDTH 9 0
BBX 9 14 0 0
BITMAP
0C00
0400
0800
0000
E180
4080
4080
4080
4080
4080
4080
4080
6100
3E00
ENDCHAR
STARTCHAR 00FC
ENCODING 252
SWIDTH 648 0
DWIDTH 9 0
BBX 9 13 0 0
BITMAP
1200
0200
0000
E180
4080
4080
4080
4080
4080
4080
4080
6100
3E00
ENDCHAR
STARTCHAR 00FD
ENCODING 253
SWIDTH 648 0
DWIDTH 9 0
BBX 9 14 0 0
BITMAP
0400
0400
0800
0000
E180
4100
6100
3200
1400
0800
0800
0800
0800
1C00
ENDCHAR
STARTCHAR 00FE
ENCODING 254
SWIDTH 576 0
DWIDTH 8 0
BBX 7 12 1 1
BITMAP
78
00
FE
82
80
80
FC
80
80
80
80
FE
ENDCHAR
STARTCHAR 00FF
ENCODING 255
SWIDTH 648 0
DWIDTH 9 0
BBX 9 13 0 0
BITMAP
3000
0800
0000
E180
4100
6100
3200
1400
0800
0800
0800
0800
1C00
ENDCHAR
STARTCHAR 0106
ENCODING 262
SWIDTH 648 0
DWIDTH 9 0
BBX 0 0 0 0
BITMAP
ENDCHAR
STARTCHAR 0107
ENCODING 263
SWIDTH 432 0
DWIDTH 6 0
BBX 0 0 0 0
BITMAP
ENDCHAR
STARTCHAR 010C
ENCODING 268
SWIDTH 648 0
DWIDTH 9 0
BBX 0 0 0 0
BITMAP
ENDCHAR
STARTCHAR 010D
ENCODING 269
SWIDTH 432 0
DWIDTH 6 0
BBX 0 0 0 0
BITMAP
ENDCHAR
STARTCHAR 0111
ENCODING 273
SWIDTH 504 0
DWIDTH 7 0
BBX 0 0 0 0
BITMAP
ENDCHAR
STARTCHAR 011E
ENCODING 286
SWIDTH 720 0
DWIDTH 10 0
BBX 0 0 0 0
BITMAP
ENDCHAR
STARTCHAR 011F
ENCODING 287
SWIDTH 432 0
DWIDTH 6 0
BBX 0 0 0 0
BITMAP
ENDCHAR
STARTCHAR 0130
ENCODING 304
SWIDTH 216 0
DWIDTH 3 0
BBX 0 0 0 0
BITMAP
ENDCHAR
STARTCHAR 0131
ENCODING 305
SWIDTH 216 0
DWIDTH 3 0
BBX 0 0 0 0
BITMAP
ENDCHAR
STARTCHAR 0141
ENCODING 321
SWIDTH 576 0
DWIDTH 8 0
BBX 0 0 0 0
BITMAP
ENDCHAR
STARTCHAR 0142
ENCODING 322
SWIDTH 216 0
DWIDTH 3 0
BBX 0 0 0 0
BITMAP
ENDCHAR
STARTCHAR 0152
ENCODING 338
SWIDTH 576 0
DWIDTH 8 0
BBX 7 15 1 -2
BITMAP
18
20
00
FE
82
80
80
FC
80
80
80
80
FE
00
10
ENDCHAR
STARTCHAR 0153
ENCODING 339
SWIDTH 648 0
DWIDTH 9 0
BBX 9 12 0 -2
BITMAP
E180
4100
6100
3200
1400
0800
0800
0800
0800
1C00
0000
0800
ENDCHAR
STARTCHAR 015E
ENCODING 350
SWIDTH 576 0
DWIDTH 8 0
BBX 0 0 0 0
BITMAP
ENDCHAR
STARTCHAR 015F
ENCODING 351
SWIDTH 360 0
DWIDTH 5 0
BBX 0 0 0 0
BITMAP
ENDCHAR
STARTCHAR 0160
ENCODING 352
SWIDTH 576 0
DWIDTH 8 0
BBX 8 15 0 0
BITMAP
80
40
2C
10
00
7F
41
40
40
7E
40
40
40
40
7F
ENDCHAR
STARTCHAR 0161
ENCODING 353
SWIDTH 648 0
DWIDTH 9 0
BBX 9 13 0 0
BITMAP
0400
0800
0000
E180
4100
6100
3200
1400
0800
0800
0800
0800
1C00
ENDCHAR
STARTCHAR 0178
ENCODING 376
SWIDTH 720 0
DWIDTH 10 0
BBX 10 15 0 0
BITMAP
0200
0200
0480
0040
0080
1F00
2080
40C0
4040
4040
C040
4040
40C0
2080
1F00
ENDCHAR
STARTCHAR 017D
ENCODING 381
SWIDTH 504 0
DWIDTH 7 0
BBX 0 0 0 0
BITMAP
ENDCHAR
STARTCHAR 017E
ENCODING 382
SWIDTH 360 0
DWIDTH 5 0
BBX 0 0 0 0
BITMAP
ENDCHAR
STARTCHAR 0192
ENCODING 402
SWIDTH 648 0
DWIDTH 9 0
BBX 9 15 0 0
BITMAP
0080
0100
0C00
1000
0000
0800
1C00
1400
2600
2200
2200
7F00
4100
4100
C180
ENDCHAR
STARTCHAR 02C6
ENCODING 710
SWIDTH 648 0
DWIDTH 9 0
BBX 9 12 0 1
BITMAP
1C00
0000
0800
1C00
1400
2600
2200
2200
7F00
4100
4100
C180
ENDCHAR
STARTCHAR 02C7
ENCODING 711
SWIDTH 432 0
DWIDTH 6 0
BBX 0 0 0 0
BITMAP
ENDCHAR
STARTCHAR 02DA
ENCODING 730
SWIDTH 432 0
DWIDTH 6 0
BBX 0 0 0 0
BITMAP
ENDCHAR
STARTCHAR 02DB
ENCODING 731
SWIDTH 432 0
DWIDTH 6 0
BBX 0 0 0 0
BITMAP
ENDCHAR
STARTCHAR 02DC
ENCODING 732
SWIDTH 720 0
DWIDTH 10 0
BBX 10 15 0 1
BITMAP
0080
0080
0D00
0200
0000
1F00
2080
40C0
4040
4040
C040
4040
40C0
2080
1F00
ENDCHAR
STARTCHAR 03A9
ENCODING 937
SWIDTH 720 0
DWIDTH 10 0
BBX 0 0 0 0
BITMAP
ENDCHAR
STARTCHAR 03C0
ENCODING 960
SWIDTH 648 0
DWIDTH 9 0
BBX 0 0 0 0
BITMAP
ENDCHAR
STARTCHAR 2013
ENCODING 8211
SWIDTH 720 0
DWIDTH 10 0
BBX 10 15 0 0
BITMAP
0040
0080
0D00
0200
0000
1F00
2080
40C0
4040
4040
C040
4040
40C0
2080
1F00
ENDCHAR
STARTCHAR 2014
ENCODING 8212
SWIDTH 720 0
DWIDTH 10 0
BBX 10 15 0 0
BITMAP
4000
2000
0C00
0200
0000
1F00
2080
40C0
4040
4040
C040
4040
40C0
2080
1F00
ENDCHAR
STARTCHAR 2018
ENCODING 8216
SWIDTH 216 0
DWIDTH 3 0
BBX 2 3 1 7
BITMAP
80
80
C0
ENDCHAR
STARTCHAR 2019
ENCODING 8217
SWIDTH 216 0
DWIDTH 3 0
BBX 1 3 1 7
BITMAP
80
80
80
ENDCHAR
STARTCHAR 201A
ENCODING 8218
SWIDTH 648 0
DWIDTH 9 0
BBX 9 13 0 0
BITMAP
1C00
0000
0000
0800
1C00
1400
2600
2200
2200
7F00
4100
4100
C180
ENDCHAR
STARTCHAR 201C
ENCODING 8220
SWIDTH 576 0
DWIDTH 8 0
BBX 8 15 0 0
BITMAP
80
40
2C
10
00
7F
41
40
40
7E
40
40
40
40
7F
ENDCHAR
STARTCHAR 201D
ENCODING 8221
SWIDTH 576 0
DWIDTH 8 0
BBX 7 16 1 0
BITMAP
06
02
04
18
20
00
FE
82
80
80
FC
80
80
80
80
FE
ENDCHAR
STARTCHAR 201E
ENCODING 8222
SWIDTH 648 0
DWIDTH 9 0
BBX 9 15 0 0
BITMAP
8000
4000
2C00
1000
0000
0800
1C00
1400
2600
2200
2200
7F00
4100
4100
C180
ENDCHAR
STARTCHAR 2020
ENCODING 8224
SWIDTH 720 0
DWIDTH 10 0
BBX 10 12 0 -2
BITMAP
1F00
2080
40C0
4040
4040
C040
4040
40C0
2080
1B00
0400
0400
ENDCHAR
STARTCHAR 2021
ENCODING 8225
SWIDTH 720 0
DWIDTH 10 0
BBX 10 15 0 0
BITMAP
0E00
1000
0C00
0200
0000
1F00
2080
40C0
4040
4040
C040
4040
40C0
2080
1F00
ENDCHAR
STARTCHAR 2022
ENCODING 8226
SWIDTH 576 0
DWIDTH 8 0
BBX 7 15 1 0
BITMAP
38
00
18
20
00
FE
82
80
80
FC
80
80
80
80
FE
ENDCHAR
STARTCHAR 2026
ENCODING 8230
SWIDTH 648 0
DWIDTH 9 0
BBX 9 16 0 0
BITMAP
0200
0100
0200
0C00
1000
0000
0800
1C00
1400
2600
2200
2200
7F00
4100
4100
C180
ENDCHAR
STARTCHAR 2030
ENCODING 8240
SWIDTH 576 0
DWIDTH 8 0
BBX 8 15 1 0
BITMAP
01
02
1C
20
00
FE
82
80
80
FC
80
80
80
80
FE
ENDCHAR
STARTCHAR 2039
ENCODING 8249
SWIDTH 576 0
DWIDTH 8 0
BBX 7 16 1 0
BITMAP
06
02
04
18
20
00
FE
82
80
80
FC
80
80
80
80
FE
ENDCHAR
STARTCHAR 203A
ENCODING 8250
SWIDTH 648 0
DWIDTH 9 0
BBX 9 14 0 0
BITMAP
0400
0400
0800
0000
E180
4100
6100
3200
1400
0800
0800
0800
0800
1C00
ENDCHAR
STARTCHAR 20A3
ENCODING 8355
SWIDTH 864 0
DWIDTH 12 0
BBX 0 0 0 0
BITMAP
ENDCHAR
STARTCHAR 2122
ENCODING 8482
SWIDTH 720 0
DWIDTH 10 0
BBX 10 15 0 0
BITMAP
0E00
1000
0C00
0200
0000
1F00
2080
40C0
4040
4040
C040
4040
40C0
2080
1F00
ENDCHAR
STARTCHAR 2202
ENCODING 8706
SWIDTH 504 0
DWIDTH 7 0
BBX 0 0 0 0
BITMAP
ENDCHAR
STARTCHAR 2206
ENCODING 8710
SWIDTH 576 0
DWIDTH 8 0
BBX 0 0 0 0
BITMAP
ENDCHAR
STARTCHAR 220F
ENCODING 8719
SWIDTH 720 0
DWIDTH 10 0
BBX 0 0 0 0
BITMAP
ENDCHAR
STARTCHAR 2211
ENCODING 8721
SWIDTH 648 0
DWIDTH 9 0
BBX 0 0 0 0
BITMAP
ENDCHAR
STARTCHAR 2212
ENCODING 8722
SWIDTH 792 0
DWIDTH 11 0
BBX 0 0 0 0
BITMAP
ENDCHAR
STARTCHAR 2215
ENCODING 8725
SWIDTH 144 0
DWIDTH 2 0
BBX 0 0 0 0
BITMAP
ENDCHAR
STARTCHAR 2219
ENCODING 8729
SWIDTH 216 0
DWIDTH 3 0
BBX 2 14 1 0
BITMAP
C0
40
80
00
C0
C0
C0
C0
C0
C0
C0
C0
C0
C0
ENDCHAR
STARTCHAR 221A
ENCODING 8730
SWIDTH 576 0
DWIDTH 8 0
BBX 0 0 0 0
BITMAP
ENDCHAR
STARTCHAR 221E
ENCODING 8734
SWIDTH 792 0
DWIDTH 11 0
BBX 0 0 0 0
BITMAP
ENDCHAR
STARTCHAR 222B
ENCODING 8747
SWIDTH 432 0
DWIDTH 6 0
BBX 0 0 0 0
BITMAP
ENDCHAR
STARTCHAR 2248
ENCODING 8776
SWIDTH 792 0
DWIDTH 11 0
BBX 0 0 0 0
BITMAP
ENDCHAR
STARTCHAR 2260
ENCODING 8800
SWIDTH 792 0
DWIDTH 11 0
BBX 0 0 0 0
BITMAP
ENDCHAR
STARTCHAR 2264
ENCODING 8804
SWIDTH 792 0
DWIDTH 11 0
BBX 0 0 0 0
BITMAP
ENDCHAR
STARTCHAR 2265
ENCODING 8805
SWIDTH 792 0
DWIDTH 11 0
BBX 0 0 0 0
BITMAP
ENDCHAR
STARTCHAR 25CA
ENCODING 9674
SWIDTH 432 0
DWIDTH 6 0
BBX 0 0 0 0
BITMAP
ENDCHAR
STARTCHAR F000
ENCODING 61440
SWIDTH 720 0
DWIDTH 10 0
BBX 0 0 0 0
BITMAP
ENDCHAR
STARTCHAR F001
ENCODING 61441
SWIDTH 504 0
DWIDTH 7 0
BBX 0 0 0 0
BITMAP
ENDCHAR
STARTCHAR F002
ENCODING 61442
SWIDTH 504 0
DWIDTH 7 0
BBX 0 0 0 0
BITMAP
ENDCHAR
ENDFONT
